<svg viewBox="0 0 226.77 75.56" role="img" aria-label="REVUELE" class="h-9 w-auto md:h-10" fill="currentColor" xmlns="http://www.w3.org/2000/svg"><path d="M64.01,50.31h0v-8.14h-.88c-.33,2.38-.45,4.86-1.33,6.9-.67,1.58-1.99,2.27-3.54,2.27h-10.99v-21.69h8.21c1,0,2.11.56,2.45,1.24.77,1.13.99,2.49,1.21,4.18h.78v-12.19h-.78c-.22,2.48-.55,3.5-1.21,4.52-.45.56-1.45,1.02-2.45,1.02h-8.21V8.86h10.66c1.32.11,2.55.79,2.99,1.58.89,1.25,1.22,2.83,1.67,6.33h.78V7.51h-24.86v1.35h3.22v42.47h-3.22v1.35h25.52v-2.38Z"></path><path d="M226.77,50.31h0v-8.14h-.88c-.33,2.38-.33,4.86-1.33,6.9-.68,1.58-2,2.27-3.55,2.27h-10.99v-21.69h8.21c1,0,2.12.56,2.45,1.24.77,1.13.99,2.49,1.22,4.18h.77v-12.19h-.77c-.23,2.48-.56,3.5-1.22,4.52-.45.56-1.45,1.02-2.45,1.02h-8.21V8.86h10.66c1.32.11,2.54.79,2.99,1.58.89,1.25,1.22,2.83,1.76,6.33h.68V7.51h-24.86v1.35h3.33v42.47h-3.33v1.35h25.52v-2.38Z"></path><path d="M164.53,50.31h0v-8.14h-.88c-.33,2.38-.33,4.86-1.32,6.9-.67,1.58-2.01,2.27-3.55,2.27h-10.99v-21.69h8.21c1,0,2.11.56,2.44,1.24.78,1.13,1,2.49,1.22,4.18h.78v-12.19h-.78c-.22,2.48-.55,3.5-1.22,4.52-.44.56-1.44,1.02-2.44,1.02h-8.21V8.86h10.65c1.33.11,2.55.79,3,1.58.9,1.25,1.22,2.83,1.77,6.33h.67V7.51h-24.85v1.35h3.33v42.47h-3.33v1.35h25.52v-2.38Z"></path><path d="M8.99,28.06V8.86h6.21c4.66,0,8.1,4.29,8.1,9.82,0,4.86-2.32,9.38-8.31,9.38h-5.99ZM30.83,51.33l-13.75-22.15c.11-.1,1.77-.1,1.33-.1,5.99-.34,10.87-4.86,10.87-10.39,0-6.89-5.77-11.18-12.75-11.18H0v1.35h3.33v42.47H0v1.35h12.64v-1.35h-3.66v-22.03h1.88l13.94,23.39h9.15v-1.35h-3.12Z"></path><path d="M80.99,16.99c-1.66-2.49-2.66-3.39-3.77-4.52-3.55-3.5-6.66-5.19-9.45-10.28-.54-.91-1.11-2.94-.21-1.92.21.45.66.91.89,1.13,2.55,3.05,4.32,3.5,6.76,5.3,2.44,1.7,3.77,2.48,5.21,6.78.23.79.45,1.81.56,2.71.11.56.11,1.01,0,.79"></path><path d="M196.27,49.97h0v-7.91h-.78c-.44,3.52-.78,5.55-1.45,7.11-.66,1.71-2.11,2.16-3.66,2.16h-10.98V8.86h4.66v-1.35h-13.97v1.35h3.43v42.47h-3.43v1.35h26.18v-2.72Z"></path><path d="M134.46,8.86v-1.35h-9.43v1.35h4.55v32.75c0,5.54-3.77,9.72-9.21,9.72-5.11,0-8.87-4.07-8.87-9.28V8.86h3.43v-1.35h-12.65v1.35h3.45v31.05c0,7.8,5.99,13.45,13.87,13.45,6.76,0,11.53-5.09,11.53-11.64V8.86h3.33Z"></path><path d="M80.32,22.87c-.44-.91-1.11-2.27-1.66-3.28-2.12-3.83-7.1-8.01-11.22-11.63l-.55.67c1.56,1.58,3.22,4.18,4.88,7.12,1,2.48,1.77,5.08,2.55,7.89l2.33,7.58,6.22,21.46h3.54l11.75-43.82h2.68v-1.35h-8.66v1.35h4.1l-9.54,36.59c-1.99-7.57-4.22-15.01-6.43-22.58"></path><path d="M127.91,72.52c0-.31.04-.61.12-.88.09-.28.21-.55.39-.81.17-.26.41-.52.69-.76.29-.25.63-.49,1.04-.74-.22-.31-.41-.58-.57-.83-.16-.25-.29-.48-.39-.69-.1-.21-.18-.42-.22-.61-.05-.2-.07-.39-.07-.59,0-.35.06-.68.17-1,.12-.32.31-.6.56-.85.26-.25.59-.44.99-.58.41-.14.9-.22,1.47-.22.49,0,.91.05,1.27.16.36.11.66.26.89.46.24.2.41.44.53.72.12.28.18.59.18.94,0,.33-.05.64-.16.91-.1.28-.28.55-.51.81-.23.26-.53.52-.9.78-.37.26-.8.53-1.32.81.19.23.4.47.62.72.22.25.45.51.69.76.24.25.49.5.74.75.25.24.5.48.75.71.11-.15.21-.33.3-.52.09-.19.17-.4.23-.62.07-.22.12-.44.15-.67.03-.23.05-.46.05-.69v-.3c0-.06,0-.1.03-.14.02-.04.05-.07.1-.1.05-.02.11-.04.2-.05.09-.01.2-.02.34-.02.12,0,.22,0,.31,0s.16.02.21.04c.05.02.09.05.12.09.03.04.04.1.04.18v.21c0,.32-.03.63-.08.93-.05.31-.13.6-.22.9-.09.29-.2.57-.34.83-.13.27-.29.51-.45.74.25.2.47.37.65.51.19.13.34.25.47.33.13.08.24.14.33.18.09.03.16.05.21.05s.11,0,.16,0c.05,0,.09,0,.12.03.03.02.05.07.07.13.02.07.03.17.03.31,0,.14,0,.25,0,.34,0,.08-.02.15-.03.19-.02.04-.04.08-.07.11-.03.03-.1.05-.18.08s-.2.04-.35.03c-.11,0-.23-.02-.37-.06-.13-.04-.29-.11-.47-.21-.18-.1-.38-.23-.62-.4-.24-.17-.51-.38-.83-.64-.23.19-.48.37-.74.53-.26.17-.53.31-.83.42-.29.12-.6.21-.91.27-.32.07-.66.1-1.04.1-.35,0-.68-.03-1-.09-.31-.06-.6-.15-.87-.27-.27-.12-.51-.26-.72-.44-.21-.17-.39-.37-.53-.6-.15-.22-.26-.47-.34-.75-.08-.28-.12-.58-.12-.9M129.4,72.38c0,.3.05.56.15.81.1.24.24.45.43.63.19.18.43.32.71.41.28.1.61.15.98.15.23,0,.45-.02.67-.07.22-.05.42-.11.62-.2.2-.08.38-.18.56-.29.18-.12.34-.24.49-.37-.29-.25-.58-.52-.86-.79-.28-.27-.56-.55-.83-.83-.26-.27-.52-.55-.77-.83-.25-.27-.47-.54-.68-.8-.28.18-.51.36-.69.54-.19.18-.34.36-.45.53s-.2.36-.25.54c-.05.18-.08.37-.08.57M130.37,66.48c0,.15.02.31.06.47.04.16.1.32.19.5.09.17.19.36.32.55.12.2.27.42.44.66.4-.23.74-.44,1.02-.64.27-.19.49-.38.66-.56.17-.18.29-.36.36-.54.07-.18.11-.37.11-.58,0-.16-.03-.32-.09-.47-.06-.15-.15-.28-.28-.4-.12-.11-.29-.21-.48-.27-.19-.07-.43-.1-.7-.1-.29,0-.54.04-.74.11-.2.08-.37.18-.5.31-.13.13-.22.27-.29.44-.06.17-.09.35-.09.53"></path><path d="M163.9,73.85c0,.09,0,.17-.01.24,0,.07-.01.13-.03.18-.01.05-.03.1-.05.14-.02.04-.06.09-.12.15-.06.06-.18.14-.36.26-.18.12-.4.23-.67.34-.27.11-.58.21-.93.29-.35.08-.73.12-1.14.12-.71,0-1.36-.12-1.93-.36-.57-.24-1.06-.6-1.46-1.07-.4-.47-.72-1.05-.93-1.75-.22-.69-.33-1.49-.33-2.4s.12-1.75.35-2.48c.24-.72.56-1.34.99-1.84.42-.5.93-.89,1.52-1.15.59-.26,1.24-.4,1.96-.4.31,0,.62.03.92.09.3.06.57.14.83.23.25.09.48.2.68.32.2.12.33.22.41.3.08.08.13.14.15.18.02.04.04.09.05.14.01.06.02.12.04.2,0,.07.01.16.01.27,0,.12,0,.21-.02.29-.01.08-.03.15-.05.2-.02.05-.05.09-.08.12-.03.03-.07.04-.11.04-.08,0-.19-.06-.33-.17-.14-.11-.32-.24-.55-.37-.23-.13-.5-.26-.82-.37-.32-.11-.71-.17-1.16-.17-.49,0-.93.1-1.33.3-.4.2-.74.49-1.03.88-.28.38-.5.85-.66,1.41-.16.56-.23,1.19-.23,1.9s.07,1.33.22,1.88c.15.54.37,1,.65,1.36.28.36.63.64,1.03.83.41.19.87.28,1.39.28.44,0,.82-.05,1.14-.16.33-.11.61-.23.84-.37.23-.13.42-.26.57-.37.15-.11.26-.16.35-.16.04,0,.07,0,.1.03.03.02.05.05.07.1.02.05.03.12.04.2.01.09.01.19.01.33"></path><path d="M185.04,74.98c.04.13.07.23.07.31,0,.08-.02.14-.07.18-.05.04-.12.07-.23.08-.11.01-.25.02-.43.02s-.32,0-.43-.01c-.11,0-.19-.02-.24-.04-.06-.02-.1-.05-.12-.08-.03-.04-.05-.08-.07-.13l-.96-2.76h-4.63s-.91,2.72-.91,2.72c-.02.05-.04.1-.07.13-.03.04-.07.07-.12.1-.05.03-.13.05-.23.06s-.23.02-.39.02-.3,0-.41-.02c-.11-.01-.18-.04-.23-.08-.04-.04-.06-.1-.06-.18,0-.08.03-.18.08-.31l3.73-10.52c.03-.06.06-.12.09-.16.04-.04.09-.07.17-.1.07-.02.16-.04.27-.05.11,0,.25-.01.43-.01s.33,0,.46.01c.12.01.22.03.29.05.07.02.13.06.17.1.04.04.07.1.09.16l3.74,10.53ZM180.25,65.68h0l-1.92,5.65h3.87l-1.95-5.65Z"></path><path d="M204.96,75.28s0,.09-.03.12c-.02.04-.05.06-.11.09-.06.02-.14.04-.24.05-.1.01-.24.02-.41.02-.15,0-.27,0-.37-.02-.1-.01-.17-.03-.23-.06-.06-.03-.1-.06-.13-.11s-.06-.11-.08-.18l-1.03-2.68c-.12-.31-.24-.58-.38-.84-.13-.25-.28-.47-.46-.66-.18-.19-.39-.33-.63-.43-.24-.1-.53-.15-.87-.15h-.99v4.85s-.02.09-.04.12c-.03.04-.07.06-.12.08-.06.02-.13.04-.23.05-.09.01-.21.02-.36.02s-.26,0-.36-.02c-.09-.02-.17-.03-.23-.05-.06-.02-.1-.05-.12-.08-.02-.04-.03-.08-.03-.12v-10.54c0-.23.06-.39.18-.48.12-.09.24-.14.38-.13h2.37c.28,0,.52,0,.71.02.19.02.35.03.5.05.43.08.81.2,1.14.36.33.16.61.37.83.62.23.25.39.54.51.87.11.33.17.68.17,1.08,0,.38-.05.72-.15,1.03-.1.3-.24.57-.44.8-.19.23-.42.43-.68.6-.27.17-.56.31-.89.43.18.08.35.19.5.31.15.13.29.28.42.45.13.18.25.38.37.61.11.23.23.49.35.77l1,2.51c.08.21.13.36.16.44.02.09.03.15.03.2M202.72,67.28c0-.44-.1-.82-.29-1.13-.2-.31-.52-.53-.98-.66-.14-.04-.31-.07-.49-.09-.18-.02-.42-.03-.71-.03h-1.25v3.84h1.45c.39,0,.73-.05,1.02-.14.28-.1.52-.23.71-.4.19-.17.33-.38.42-.61.09-.23.13-.49.13-.77"></path><path d="M223.93,74.93c0,.11,0,.2-.02.28-.01.08-.03.14-.06.2-.03.05-.06.09-.1.11-.04.02-.08.03-.13.03h-5.39c-.13,0-.26-.05-.38-.14-.12-.09-.18-.25-.18-.48v-10.2c0-.23.06-.39.18-.48.12-.09.24-.14.38-.14h5.33s.09.01.13.04c.04.02.07.06.09.11.03.05.04.12.06.2.01.08.02.18.02.3,0,.1,0,.2-.02.28-.02.08-.03.14-.06.19-.02.05-.05.09-.09.11-.04.02-.08.04-.13.04h-4.39v3.59h3.77s.09.01.13.04c.04.03.07.06.1.11.03.05.04.11.06.19.01.08.02.18.02.29,0,.11,0,.2-.02.27-.01.08-.03.14-.06.19-.03.05-.06.08-.1.1-.04.02-.08.03-.13.03h-3.77v4.09h4.45s.09.02.13.04c.04.03.07.06.1.11.03.05.05.11.06.19.01.08.02.18.02.3"></path><path d="M10.73,72.28c0,.36-.04.69-.13.99-.09.31-.22.58-.38.82-.16.24-.36.45-.59.64-.23.18-.49.34-.77.46-.29.12-.59.22-.92.28-.33.06-.7.09-1.12.09h-2.93c-.14,0-.26-.05-.38-.14-.12-.09-.18-.25-.18-.48v-10.2c0-.23.06-.39.18-.48.12-.09.24-.14.38-.14h2.55c.67,0,1.22.07,1.65.2.43.13.79.32,1.07.56.29.25.5.55.65.91.14.36.22.77.22,1.22,0,.27-.03.53-.1.78-.06.25-.16.48-.28.68s-.28.4-.47.56c-.19.17-.4.3-.65.41.31.06.59.17.86.32.27.16.5.36.7.6.2.24.36.52.47.85.12.32.17.68.17,1.07M8.49,67.16c0-.28-.04-.53-.11-.75-.08-.22-.19-.41-.36-.57-.16-.16-.37-.28-.63-.36-.26-.08-.6-.12-1.03-.12h-1.54v3.7h1.7c.39,0,.7-.05.94-.15.24-.1.43-.24.59-.42.16-.17.27-.38.34-.61.07-.23.11-.47.11-.72M9.16,72.37c0-.34-.05-.64-.16-.9-.11-.26-.27-.48-.47-.65-.21-.18-.46-.31-.77-.4-.31-.09-.7-.14-1.16-.14h-1.79v4.03s2.17,0,2.17,0c.34,0,.64-.04.89-.12.25-.08.48-.2.67-.37.19-.16.35-.36.46-.61.11-.24.17-.52.17-.84"></path><path d="M70.66,71.25c0,.68-.1,1.29-.29,1.83-.2.54-.48.99-.84,1.36-.36.37-.81.65-1.33.84-.52.19-1.12.29-1.78.29-.61,0-1.16-.09-1.66-.27-.5-.18-.93-.44-1.28-.79-.36-.35-.63-.79-.83-1.31-.19-.53-.29-1.13-.29-1.82v-6.96s.01-.09.04-.12c.02-.03.06-.06.12-.08s.13-.04.22-.05c.09-.01.21-.02.36-.02.13,0,.25,0,.35.02.1.01.17.03.23.05.05.02.09.05.11.08.02.04.03.08.03.12v6.78c0,.52.06.97.19,1.36.12.39.3.71.54.97.24.26.52.45.85.58.33.13.7.2,1.12.2s.81-.06,1.14-.19c.33-.13.61-.32.84-.57.23-.25.41-.57.53-.95.12-.38.18-.82.18-1.32v-6.86s.01-.09.03-.12c.02-.03.06-.06.12-.08.06-.02.13-.04.22-.05.09-.02.21-.02.36-.02.13,0,.25,0,.34.02.09.01.17.03.22.05.05.02.09.05.12.08.02.04.04.08.04.12v6.85Z"></path><path d="M91.01,64.78c0,.11,0,.21-.02.29-.01.08-.03.15-.06.2-.03.05-.06.09-.09.11-.04.02-.08.03-.13.03h-3.15v9.87s-.01.09-.04.12c-.02.04-.06.06-.12.08s-.13.04-.23.05c-.1.02-.21.02-.36.02s-.26,0-.35-.02c-.1-.01-.18-.03-.23-.05s-.1-.05-.12-.08c-.02-.03-.04-.08-.04-.12v-9.87h-3.15s-.09-.01-.12-.04c-.04-.02-.07-.06-.09-.11-.02-.05-.04-.11-.06-.2-.02-.08-.02-.18-.02-.29s0-.21.02-.29c.01-.09.03-.16.06-.21.02-.05.05-.09.09-.11.04-.02.08-.03.12-.03h7.78s.09.01.13.04c.04.02.07.06.09.11.03.05.05.12.06.21.01.08.02.18.02.29"></path><path d="M107.4,71.1v4.18s-.01.09-.04.12c-.02.04-.06.06-.12.08-.06.02-.13.04-.23.05-.1.01-.21.02-.35.02s-.26,0-.35-.02c-.09-.02-.17-.03-.23-.05-.06-.02-.1-.05-.12-.08-.02-.03-.04-.08-.04-.12v-4.18s-3.15-6.39-3.15-6.39c-.06-.13-.1-.24-.11-.32-.01-.07,0-.13.04-.17.04-.04.12-.07.23-.08.11-.01.26-.02.45-.02.17,0,.31,0,.42.02s.19.03.25.05c.06.02.11.05.14.09.03.04.06.09.09.14l1.54,3.26c.14.31.28.64.43.97.14.34.29.68.43,1.03h.02c.13-.33.26-.66.41-.99.14-.33.28-.65.42-.98l1.55-3.27c.02-.06.04-.11.07-.15.03-.04.07-.07.13-.09.05-.02.13-.04.23-.05.1-.01.22-.02.37-.02.21,0,.37,0,.49.02.12.02.2.04.24.08s.06.1.05.18c-.02.08-.05.18-.12.31l-3.15,6.39Z"></path><path d="M50.46,74.98c.04.13.07.23.07.31,0,.08-.02.14-.07.18-.05.04-.12.07-.23.08-.11.01-.25.02-.43.02s-.32,0-.42-.01c-.11,0-.19-.02-.24-.04-.06-.02-.1-.05-.12-.08-.03-.04-.05-.08-.07-.13l-.96-2.76h-4.63s-.91,2.72-.91,2.72c-.02.05-.04.1-.07.13-.03.04-.07.07-.12.1-.05.03-.13.05-.23.06s-.23.02-.39.02-.3,0-.41-.02c-.11-.01-.18-.04-.23-.08-.04-.04-.06-.1-.06-.18,0-.08.03-.18.08-.31l3.73-10.52c.03-.06.06-.12.09-.16.04-.04.09-.07.17-.1.07-.02.16-.04.27-.05.11,0,.25-.01.43-.01s.33,0,.46.01c.12.01.22.03.29.05.07.02.13.06.17.1.04.04.07.1.09.16l3.74,10.53ZM45.67,65.68h0l-1.92,5.65h3.87l-1.95-5.65Z"></path><path d="M29.54,74.93c0,.11,0,.2-.02.28-.01.08-.03.14-.06.2-.03.05-.06.09-.1.11-.04.02-.08.03-.13.03h-5.39c-.13,0-.26-.05-.38-.14-.12-.09-.18-.25-.18-.48v-10.2c0-.23.06-.39.18-.48.12-.09.24-.14.38-.14h5.33s.09.01.13.04c.04.02.07.06.09.11.03.05.04.12.06.2.01.08.02.18.02.3,0,.11,0,.2-.02.28-.02.08-.03.14-.06.2-.02.05-.05.09-.09.11-.04.02-.08.04-.13.04h-4.39v3.59h3.77s.09.01.13.04c.04.03.07.06.1.11.03.05.04.11.06.19s.02.18.02.29c0,.11,0,.2-.02.27-.01.08-.03.14-.06.19-.03.05-.06.08-.1.1-.04.02-.08.03-.13.03h-3.77v4.09h4.45s.09.02.13.04c.04.03.07.06.1.11.03.05.05.11.06.19.01.08.02.18.02.3"></path></svg>